<?xml version="1.0" standalone="no"?>
<!DOCTYPE svg PUBLIC "-//W3C//DTD SVG 20010904//EN"
 "http://www.w3.org/TR/2001/REC-SVG-20010904/DTD/svg10.dtd">
<svg version="1.0" xmlns="http://www.w3.org/2000/svg"
 width="607.000000pt" height="425.000000pt" viewBox="0 0 607.000000 425.000000"
 preserveAspectRatio="xMidYMid meet">
<metadata>
Created by potrace 1.15, written by Peter Selinger 2001-2017
</metadata>
<g transform="translate(0.000000,425.000000) scale(0.100000,-0.100000)"
fill="#000000" stroke="none">
<path d="M1805 4230 c-456 -70 -860 -275 -1185 -600 -332 -332 -540 -751 -604
-1218 -21 -147 -21 -427 0 -574 64 -467 272 -886 604 -1218 332 -332 751 -540
1218 -604 147 -21 427 -21 574 0 467 64 886 272 1218 604 332 332 540 751 604
1218 21 147 21 427 0 574 -64 467 -272 886 -604 1218 -332 332 -751 540 -1218
604 -157 22 -450 20 -607 -4z m-207 -1202 l-3 -63 -67 -3 -68 -3 0 -184 0
-185 -70 0 -70 0 0 185 0 184 -72 3 -73 3 -3 63 -3 62 216 0 216 0 -3 -62z
m252 -33 l0 -95 85 0 85 0 0 95 0 95 70 0 70 0 0 -250 0 -250 -70 0 -70 0 0
90 0 90 -85 0 -85 0 0 -90 0 -90 -75 0 -75 0 0 243 c0 134 3 247 7 250 3 4 37
7 75 7 l68 0 0 -95z m763 81 c106 -44 143 -180 71 -256 l-23 -25 54 -95 c30
-52 55 -98 55 -102 0 -5 -33 -8 -74 -8 l-75 0 -41 75 c-41 74 -42 75 -81 75
l-39 0 0 -75 0 -75 -70 0 -70 0 0 250 0 250 130 0 c87 0 141 -4 163 -14z m677
-46 l0 -60 -135 0 -135 0 0 -35 0 -35 125 0 125 0 0 -60 0 -60 -125 0 -125 0
0 -35 0 -35 135 0 135 0 0 -60 0 -60 -200 0 -200 0 0 250 0 250 200 0 200 0 0
-60z m550 0 l0 -60 -135 0 -135 0 0 -35 0 -35 125 0 125 0 0 -60 0 -60 -125 0
-125 0 0 -35 0 -35 135 0 135 0 0 -60 0 -60 -200 0 -200 0 0 250 0 250 200 0
200 0 0 -60z m-1231 -581 c41 -12 112 -58 118 -76 2 -6 -19 -27 -47 -46 l-51
-34 -37 19 c-108 56 -229 -60 -176 -168 38 -76 122 -102 189 -58 l29 19 -47 3
-47 3 0 60 0 59 115 0 115 0 0 -141 0 -140 -72 1 c-40 1 -93 -4 -118 -10 -118
-30 -249 43 -295 163 -28 74 -17 174 25 236 33 47 106 105 145 114 38 9 118 7
154 -4z m-1029 -59 l0 -60 -135 0 -135 0 0 -35 0 -35 125 0 125 0 0 -60 0 -60
-125 0 -125 0 0 -35 0 -35 135 0 135 0 0 -60 0 -60 -200 0 -200 0 0 250 0 250
200 0 200 0 0 -60z m345 -64 l80 -124 5 121 5 122 68 3 67 3 0 -251 0 -250
-68 0 -68 0 -80 124 -79 124 -3 -124 -3 -124 -69 0 -70 0 0 250 0 250 68 0 67
0 80 -124z m1105 -126 l0 -250 -70 0 -70 0 0 250 0 250 70 0 70 0 0 -250z
m355 126 l80 -124 5 121 5 122 68 3 67 3 0 -251 0 -250 -68 0 -68 0 -80 124
-79 124 -3 -124 -3 -124 -69 0 -70 0 0 250 0 250 68 0 67 0 80 -124z m765 64
l0 -60 -135 0 -135 0 0 -35 0 -35 125 0 125 0 0 -60 0 -60 -125 0 -125 0 0
-35 0 -35 135 0 135 0 0 -60 0 -60 -200 0 -200 0 0 250 0 250 200 0 200 0 0
-60z m-2830 -830 l0 -250 -70 0 -70 0 0 250 0 250 70 0 70 0 0 -250z m485 223
c22 -12 54 -36 72 -55 90 -94 87 -252 -6 -346 -61 -61 -81 -66 -248 -70 l-153
-4 0 252 0 252 148 -4 c127 -3 152 -6 187 -25z"/>
<path d="M1610 1555 l0 -125 33 0 c92 0 157 51 157 124 0 81 -50 126 -140 126
l-50 0 0 -125z"/>
<path d="M5537 2458 c-33 -4 -75 -17 -94 -29 -48 -30 -78 -97 -69 -153 13 -79
52 -109 183 -141 39 -9 80 -23 90 -30 17 -13 17 -14 0 -32 -23 -24 -96 -21
-165 6 l-51 20 -31 -54 c-17 -30 -29 -59 -26 -64 10 -16 99 -42 166 -48 181
-16 290 70 260 203 -16 68 -64 101 -191 130 -75 17 -99 35 -79 59 17 21 70 19
137 -5 31 -11 57 -19 59 -17 8 10 64 105 64 110 0 10 -104 44 -150 49 -25 2
-71 1 -103 -4z"/>
<path d="M4280 2200 l0 -250 205 0 205 0 0 60 0 60 -135 0 -135 0 0 30 0 30
125 0 125 0 0 65 0 65 -125 0 -125 0 0 30 0 30 135 0 135 0 0 65 0 65 -205 0
-205 0 0 -250z"/>
<path d="M4820 2200 l0 -250 75 0 75 0 0 75 0 75 38 0 c36 0 38 -3 75 -71 22
-39 45 -73 51 -75 7 -3 44 -4 83 -2 l70 3 -54 97 -55 98 21 26 c50 63 47 151
-6 215 -43 51 -76 59 -233 59 l-140 0 0 -250z"/>
</g>
</svg>
